<?xml version="1.0" encoding="utf-8"?>
<!-- Generator: Adobe Illustrator 23.0.1, SVG Export Plug-In . SVG Version: 6.00 Build 0)  -->
<svg version="1.1" id="Layer_1" xmlns="http://www.w3.org/2000/svg" xmlns:xlink="http://www.w3.org/1999/xlink" x="0px" y="0px"
	 width="134px" height="48.335px" viewBox="0 0 134 48.335" style="enable-background:new 0 0 134 48.335;" xml:space="preserve">
<g>
	<g>
		<g>
			<path d="M7.158,11.339v9.415c0,4.128,1.045,4.679,1.045,4.679s-1.045,0.497-1.045,4.682v6.936c0,5.726,1.373,6.552,1.373,6.552
				l-0.109,0.328H0.107l-0.108-0.328c0,0,1.376-0.826,1.376-6.552v-6.936c0-4.185-1.046-4.682-1.046-4.682s1.046-0.551,1.046-4.679
				v-9.415c0-5.78-1.376-6.551-1.376-6.551l0.108-0.384h8.315l0.109,0.384C8.531,4.788,7.158,5.559,7.158,11.339z"/>
			<path d="M32.646,43.603l-0.165,0.328h-8.312l-0.111-0.328c0,0,1.431-0.826,1.431-6.552v-3.303l-7.048-16.573V37.05
				c0,5.726,1.376,6.552,1.376,6.552l-0.11,0.328h-8.312l-0.109-0.328c0,0,1.374-0.826,1.374-6.552v-6.936
				c0-4.185-1.046-4.682-1.046-4.682s1.046-0.551,1.046-4.679v-9.415c0-5.78-1.374-6.551-1.374-6.551l0.109-0.384h8.312l0.276,0.384
				c0,0-1.045,2.036,1.435,7.764l4.072,9.304V11.339c0-5.78-1.431-6.551-1.431-6.551l0.111-0.384h8.312l0.165,0.384
				c0,0-1.431,0.771-1.431,6.551v9.415c0,4.128,1.046,4.679,1.046,4.679s-1.046,0.497-1.046,4.682v6.936
				C31.215,42.777,32.646,43.603,32.646,43.603z"/>
			<path d="M54.724,25.434c0,0-0.936,0.44-1.048,3.745v8.369c0,3.908-3.193,7.046-7.045,7.046h-3.469
				c-3.91,0-7.048-3.138-7.048-7.046v-8.534c-0.111-3.14-0.715-3.58-0.715-3.58s0.604-0.441,0.715-3.578V10.788
				c0-3.854,3.137-7.046,7.048-7.046h3.469c3.852,0,7.045,3.193,7.045,7.046v10.847C53.788,24.939,54.724,25.434,54.724,25.434z
				 M47.895,30.115c0-4.185-1.043-4.682-1.043-4.682s1.043-0.551,1.043-4.679v-10.68c0-1.265-0.991-2.259-2.258-2.259h-1.486
				c-1.266,0-2.258,0.994-2.258,2.259v10.68c0,4.128,1.046,4.679,1.046,4.679s-1.046,0.497-1.046,4.682v8.203
				c0,1.21,0.992,2.256,2.258,2.256h1.486c1.267,0,2.258-1.046,2.258-2.256V30.115z"/>
			<path d="M77.515,4.404l0.112,0.384c0,0-1.487,0.771-2.091,6.551l-0.992,9.415c-0.44,4.128,0.549,4.679,0.549,4.679
				s-1.103,0.497-1.541,4.682l-0.715,6.936c-0.608,5.726,0.715,6.552,0.715,6.552l-0.164,0.328h-13.27l-0.222-0.328
				c0,0,1.322-0.826,0.717-6.552l-0.769-6.936c-0.444-4.185-1.543-4.682-1.543-4.682s0.992-0.551,0.548-4.679l-0.933-9.415
				c-0.606-5.78-2.092-6.551-2.092-6.551l0.107-0.384h8.316l0.166,0.384c0,0-1.324,0.771-0.717,6.551l2.971,28.52h0.111l2.974-28.52
				c0.608-5.78-0.716-6.551-0.716-6.551l0.219-0.384C69.255,4.404,77.515,4.404,77.515,4.404z"/>
			<path d="M86.433,11.339v9.415c0,4.128,1.046,4.679,1.046,4.679s-1.046,0.497-1.046,4.682v6.936c0,5.726,1.375,6.552,1.375,6.552
				L87.7,43.932h-8.313l-0.111-0.328c0,0,1.377-0.826,1.377-6.552v-6.936c0-4.185-1.046-4.682-1.046-4.682s1.046-0.551,1.046-4.679
				V11.34c0-5.78-1.377-6.551-1.377-6.551l0.111-0.384H87.7l0.108,0.384C87.808,4.788,86.433,5.559,86.433,11.339z"/>
			<path d="M111.924,43.603l-0.164,0.328h-8.315l-0.109-0.328c0,0,1.429-0.826,1.429-6.552v-3.303L97.72,17.176v19.875
				c0,5.726,1.374,6.552,1.374,6.552l-0.108,0.328H90.67l-0.106-0.328c0,0,1.374-0.826,1.374-6.552v-6.936
				c0-4.185-1.047-4.682-1.047-4.682s1.047-0.551,1.047-4.679v-9.415c0-5.78-1.374-6.551-1.374-6.551l0.106-0.384h8.315l0.273,0.384
				c0,0-1.046,2.036,1.435,7.764l4.071,9.304V11.339c0-5.78-1.429-6.551-1.429-6.551l0.109-0.384h8.315l0.164,0.384
				c0,0-1.432,0.771-1.432,6.551v9.415c0,4.128,1.049,4.679,1.049,4.679s-1.049,0.497-1.049,4.682v6.936
				C110.492,42.777,111.924,43.603,111.924,43.603z"/>
			<path d="M134.001,25.434c0,0-0.937,0.44-1.048,3.745v8.369c0,3.908-3.192,7.046-7.047,7.046h-3.469
				c-3.908,0-7.046-3.138-7.046-7.046v-8.534c-0.109-3.14-0.715-3.58-0.715-3.58s0.607-0.441,0.715-3.578V10.788
				c0-3.854,3.139-7.046,7.046-7.046h3.469c3.855,0,7.047,3.193,7.047,7.046v10.847C133.063,24.939,134.001,25.434,134.001,25.434z
				 M127.17,30.115c0-4.185-1.043-4.682-1.043-4.682s1.043-0.551,1.043-4.679v-10.68c0-1.265-0.99-2.259-2.256-2.259h-1.485
				c-1.266,0-2.259,0.994-2.259,2.259v10.68c0,4.128,1.046,4.679,1.046,4.679s-1.046,0.497-1.046,4.682v8.203
				c0,1.21,0.993,2.256,2.259,2.256h1.485c1.265,0,2.256-1.046,2.256-2.256V30.115z"/>
		</g>
	</g>
</g>
</svg>
